<svg xmlns="http://www.w3.org/2000/svg" height="20" viewBox="0 0 20 20" width="20">
<rect height="20" width="20" y=".091618" x=".030649" fill="#f00"/>
<rect height="18.55" width="18.817" y=".79202" x=".73105" fill="#fff"/>
<path fill="#f00" d="m13.237 4.0881c-4.8246 5.5779-6.2458 11.765-9.7538 11.765-1.0181 0-1.7913-0.97223-1.7913-2.0499 0-0.93928 0.63481-3.0632 1.9014-3.0632 1.1174 0 1.4965 2.242 1.4965 2.9775 0 0.18127-0.27122 0.18187-0.29259-0.05641-0.05039-0.55704-0.15148-0.99043-0.27484-1.3265-0.34072-0.92875-0.78389-1.1165-0.97373-1.1165-0.74839 0-1.3919 1.5093-1.3919 2.5573 0 0.79292 0.68506 1.6738 1.421 1.6738 1.7531 0 3.1744-1.89 4.7867-4.76 0.349-0.622 0.7014-1.2989 1.1599-2.0498 2.4146-3.9568 3.9276-5.3997 4.5736-6.002 0.123-0.1154 0.498-0.238 0.328 0.1363-0.173 0.3797-0.29 0.322-1.043 1.715-0.837 1.5478-3.289 7.5665-3.7017 10.01-0.0343 0.20368-0.01279 0.19541 0.10049 0.0176 0.34569-0.54185 4.1603-7.373 6.0807-10.164 0.75711-1.1001 0.49416-0.82586 1.2093-1.749 0.08875-0.11448 0.39984-0.12395 0.28085 0.15961-0.54125 1.2883-0.78615 1.6683-0.84857 1.8021-1.3832 2.9587-2.8067 7.3322-3.3064 9.393-0.04408 0.18127-0.22865 1.3618 0.05521 1.3618 0.45746 0 0.86798-0.44813 1.3033-1.1057 0.79397-1.2 0.81593-1.2611 0.91115-1.4017 0.08725-0.12862 0.25001-0.02347 0.18714 0.11252-0.04408 0.09673-0.36991 0.73334-0.79938 1.413-0.39804 0.63-1.0058 1.4661-1.6442 1.4661-0.92544 0-1.0192-1.5569-0.94635-2.0147 0.52124-3.2792 1.8334-5.5755 3.7645-9.1282l-0.03791-0.037908c-2.3819 3.3015-4.6714 8.1476-6.2621 10.58-0.08469 0.12952-0.33245 0.59149-0.5062 0.59149-0.21496 0-0.29244-0.80615-0.20458-1.2228 0.05822-0.27649 0.36915-1.3536 0.46001-1.6266 0.81638-2.4606 2.0338-6.0707 3.7749-8.8429l-0.0161-0.015193z"/>
</svg>
