<svg xmlns="http://www.w3.org/2000/svg" height="20" viewBox="0 0 20 20" width="20">
<circle cx="10.085" stroke="#000" cy="9.7034" r="9" stroke-width=".25" fill="#fff"/>
<path d="m6.8835 11.163 1.1169-0.09766q0.079346 0.67139 0.36621 1.1047 0.29297 0.42725 0.90332 0.6958 0.61035 0.26245 1.3733 0.26245 0.67749 0 1.1963-0.20142 0.5188-0.20142 0.76904-0.54932 0.25635-0.354 0.25635-0.76904 0-0.42114-0.24414-0.73242-0.244-0.317-0.806-0.531-0.36-0.14-1.593-0.4334-1.2327-0.2991-1.7271-0.5616-0.6409-0.3357-0.9583-0.83-0.3113-0.5005-0.3113-1.117 0-0.67749 0.38452-1.2634 0.38452-0.59204 1.123-0.89722 0.73853-0.30518 1.6418-0.30518 0.99487 0 1.7517 0.32349 0.76294 0.31738 1.1719 0.93994 0.40894 0.62256 0.43945 1.4099l-1.1353 0.085449q-0.092-0.8483-0.623-1.2817-0.525-0.4333-1.556-0.4333-1.0742 0-1.5686 0.39673-0.48828 0.39062-0.48828 0.94604 0 0.48218 0.3479 0.79346 0.3418 0.31128 1.7822 0.64087 1.4465 0.32349 1.9836 0.56763 0.78125 0.36011 1.1536 0.91553 0.37231 0.54932 0.37231 1.2695 0 0.71411-0.40894 1.3489-0.40894 0.62866-1.178 0.98267-0.76294 0.3479-1.7212 0.3479-1.2146 0-2.0386-0.354-0.8182-0.354-1.2882-1.062-0.4638-0.714-0.4883-1.611z"/>
</svg>
